<?xml version="1.0" standalone="no"?><svg xmlns="http://www.w3.org/2000/svg" viewBox="0 0 1440 320"><path fill="#5000ca" fill-opacity="0.1" d="M0,288L6.7,277.3C13.3,267,27,245,40,224C53.3,203,67,181,80,144C93.3,107,107,53,120,42.7C133.3,32,147,64,160,117.3C173.3,171,187,245,200,245.3C213.3,245,227,171,240,165.3C253.3,160,267,224,280,218.7C293.3,213,307,139,320,101.3C333.3,64,347,64,360,85.3C373.3,107,387,149,400,138.7C413.3,128,427,64,440,64C453.3,64,467,128,480,149.3C493.3,171,507,149,520,122.7C533.3,96,547,64,560,90.7C573.3,117,587,203,600,197.3C613.3,192,627,96,640,85.3C653.3,75,667,149,680,192C693.3,235,707,245,720,261.3C733.3,277,747,299,760,293.3C773.3,288,787,256,800,229.3C813.3,203,827,181,840,154.7C853.3,128,867,96,880,96C893.3,96,907,128,920,133.3C933.3,139,947,117,960,101.3C973.3,85,987,75,1000,58.7C1013.3,43,1027,21,1040,10.7C1053.3,0,1067,0,1080,26.7C1093.3,53,1107,107,1120,128C1133.3,149,1147,139,1160,138.7C1173.3,139,1187,149,1200,165.3C1213.3,181,1227,203,1240,197.3C1253.3,192,1267,160,1280,165.3C1293.3,171,1307,213,1320,224C1333.3,235,1347,213,1360,170.7C1373.3,128,1387,64,1400,85.3C1413.3,107,1427,213,1433,266.7L1440,320L1440,0L1433.3,0C1426.7,0,1413,0,1400,0C1386.7,0,1373,0,1360,0C1346.7,0,1333,0,1320,0C1306.7,0,1293,0,1280,0C1266.7,0,1253,0,1240,0C1226.7,0,1213,0,1200,0C1186.7,0,1173,0,1160,0C1146.7,0,1133,0,1120,0C1106.7,0,1093,0,1080,0C1066.7,0,1053,0,1040,0C1026.7,0,1013,0,1000,0C986.7,0,973,0,960,0C946.7,0,933,0,920,0C906.7,0,893,0,880,0C866.7,0,853,0,840,0C826.7,0,813,0,800,0C786.7,0,773,0,760,0C746.7,0,733,0,720,0C706.7,0,693,0,680,0C666.7,0,653,0,640,0C626.7,0,613,0,600,0C586.7,0,573,0,560,0C546.7,0,533,0,520,0C506.7,0,493,0,480,0C466.7,0,453,0,440,0C426.7,0,413,0,400,0C386.7,0,373,0,360,0C346.7,0,333,0,320,0C306.7,0,293,0,280,0C266.7,0,253,0,240,0C226.7,0,213,0,200,0C186.7,0,173,0,160,0C146.7,0,133,0,120,0C106.7,0,93,0,80,0C66.7,0,53,0,40,0C26.7,0,13,0,7,0L0,0Z"></path></svg>