<?xml version="1.0" standalone="no"?><svg xmlns="http://www.w3.org/2000/svg" viewBox="0 0 1440 320"><path fill="#5000ca" fill-opacity="0.1" d="M0,160L14.1,144C28.2,128,56,96,85,90.7C112.9,85,141,107,169,133.3C197.6,160,226,192,254,208C282.4,224,311,224,339,202.7C367.1,181,395,139,424,144C451.8,149,480,203,508,197.3C536.5,192,565,128,593,133.3C621.2,139,649,213,678,229.3C705.9,245,734,203,762,165.3C790.6,128,819,96,847,74.7C875.3,53,904,43,932,74.7C960,107,988,181,1016,192C1044.7,203,1073,149,1101,160C1129.4,171,1158,245,1186,266.7C1214.1,288,1242,256,1271,234.7C1298.8,213,1327,203,1355,197.3C1383.5,192,1412,192,1426,192L1440,192L1440,0L1425.9,0C1411.8,0,1384,0,1355,0C1327.1,0,1299,0,1271,0C1242.4,0,1214,0,1186,0C1157.6,0,1129,0,1101,0C1072.9,0,1045,0,1016,0C988.2,0,960,0,932,0C903.5,0,875,0,847,0C818.8,0,791,0,762,0C734.1,0,706,0,678,0C649.4,0,621,0,593,0C564.7,0,536,0,508,0C480,0,452,0,424,0C395.3,0,367,0,339,0C310.6,0,282,0,254,0C225.9,0,198,0,169,0C141.2,0,113,0,85,0C56.5,0,28,0,14,0L0,0Z"></path></svg>