<?xml version="1.0" standalone="no"?><svg xmlns="http://www.w3.org/2000/svg" viewBox="0 0 1440 320"><path fill="#0099ff" fill-opacity="0.1" d="M0,128L30,154.7C60,181,120,235,180,234.7C240,235,300,181,360,170.7C420,160,480,192,540,208C600,224,660,224,720,208C780,192,840,160,900,144C960,128,1020,128,1080,160C1140,192,1200,256,1260,261.3C1320,267,1380,213,1410,186.7L1440,160L1440,0L1410,0C1380,0,1320,0,1260,0C1200,0,1140,0,1080,0C1020,0,960,0,900,0C840,0,780,0,720,0C660,0,600,0,540,0C480,0,420,0,360,0C300,0,240,0,180,0C120,0,60,0,30,0L0,0Z"></path></svg>